<svg width="171" height="34" viewBox="0 0 171 34" fill="none" xmlns="http://www.w3.org/2000/svg">
<rect x="0.5" y="0.5" width="170" height="31.1383" rx="1.92553" stroke="url(#paint0_linear_1_390)"/>
<path d="M16.1827 22.6382V9.05521H19.3262V20.0768H26.1371V22.6382H16.1827ZM32.5907 22.7934C31.4782 22.7934 30.4886 22.5606 29.6218 22.0949C28.768 21.6292 28.0889 20.9953 27.5844 20.1932C27.0928 19.3783 26.847 18.4533 26.847 17.4184C26.847 16.3706 27.0928 15.4457 27.5844 14.6436C28.0889 13.8287 28.768 13.1948 29.6218 12.742C30.4886 12.2763 31.4782 12.0435 32.5907 12.0435C33.6903 12.0435 34.6734 12.2763 35.5401 12.742C36.4069 13.1948 37.086 13.8222 37.5776 14.6242C38.0692 15.4263 38.3149 16.3577 38.3149 17.4184C38.3149 18.4533 38.0692 19.3783 37.5776 20.1932C37.086 20.9953 36.4069 21.6292 35.5401 22.0949C34.6734 22.5606 33.6903 22.7934 32.5907 22.7934ZM32.5907 20.3097C33.0952 20.3097 33.548 20.1932 33.949 19.9604C34.35 19.7275 34.6669 19.3977 34.8998 18.9708C35.1326 18.5309 35.2491 18.0135 35.2491 17.4184C35.2491 16.8104 35.1326 16.293 34.8998 15.8661C34.6669 15.4392 34.35 15.1093 33.949 14.8765C33.548 14.6436 33.0952 14.5272 32.5907 14.5272C32.0862 14.5272 31.6334 14.6436 31.2324 14.8765C30.8314 15.1093 30.508 15.4392 30.2622 15.8661C30.0293 16.293 29.9129 16.8104 29.9129 17.4184C29.9129 18.0135 30.0293 18.5309 30.2622 18.9708C30.508 19.3977 30.8314 19.7275 31.2324 19.9604C31.6334 20.1932 32.0862 20.3097 32.5907 20.3097ZM45.2476 26.5578C44.2644 26.5578 43.3136 26.4349 42.3951 26.1892C41.4896 25.9563 40.7328 25.6006 40.1248 25.1219L41.3279 22.9487C41.7677 23.3109 42.324 23.5955 42.9967 23.8024C43.6823 24.0224 44.355 24.1323 45.0147 24.1323C46.0884 24.1323 46.8646 23.893 47.3432 23.4144C47.8348 22.9357 48.0806 22.2242 48.0806 21.2799V19.7081L48.2746 17.0886L48.2358 14.4496V12.1987H51.1076V20.8918C51.1076 22.8322 50.6031 24.2617 49.5941 25.1801C48.5851 26.0986 47.1362 26.5578 45.2476 26.5578ZM44.7819 22.1337C43.8116 22.1337 42.932 21.9267 42.1429 21.5127C41.3667 21.0858 40.7393 20.4972 40.2607 19.7469C39.795 18.9837 39.5621 18.0976 39.5621 17.0886C39.5621 16.0666 39.795 15.1805 40.2607 14.4302C40.7393 13.667 41.3667 13.0784 42.1429 12.6644C42.932 12.2504 43.8116 12.0435 44.7819 12.0435C45.6615 12.0435 46.4377 12.2246 47.1104 12.5868C47.7831 12.9361 48.307 13.4858 48.6821 14.2361C49.0573 14.9735 49.2448 15.9243 49.2448 17.0886C49.2448 18.2399 49.0573 19.1907 48.6821 19.941C48.307 20.6784 47.7831 21.2281 47.1104 21.5904C46.4377 21.9526 45.6615 22.1337 44.7819 22.1337ZM45.3834 19.6499C45.9138 19.6499 46.3859 19.5464 46.7999 19.3395C47.2139 19.1195 47.5373 18.8155 47.7701 18.4275C48.003 18.0394 48.1194 17.5931 48.1194 17.0886C48.1194 16.5711 48.003 16.1248 47.7701 15.7497C47.5373 15.3616 47.2139 15.0641 46.7999 14.8571C46.3859 14.6372 45.9138 14.5272 45.3834 14.5272C44.853 14.5272 44.3808 14.6372 43.9669 14.8571C43.5529 15.0641 43.2231 15.3616 42.9773 15.7497C42.7444 16.1248 42.628 16.5711 42.628 17.0886C42.628 17.5931 42.7444 18.0394 42.9773 18.4275C43.2231 18.8155 43.5529 19.1195 43.9669 19.3395C44.3808 19.5464 44.853 19.6499 45.3834 19.6499ZM53.9251 22.6382V12.1987H56.9521V22.6382H53.9251ZM55.4386 10.7434C54.8823 10.7434 54.4296 10.5817 54.0803 10.2583C53.731 9.93487 53.5564 9.53384 53.5564 9.05521C53.5564 8.57657 53.731 8.17555 54.0803 7.85214C54.4296 7.52874 54.8823 7.36704 55.4386 7.36704C55.9948 7.36704 56.4476 7.52227 56.7969 7.83274C57.1462 8.13027 57.3208 8.51836 57.3208 8.99699C57.3208 9.5015 57.1462 9.92193 56.7969 10.2583C56.4605 10.5817 56.0078 10.7434 55.4386 10.7434ZM66.1067 12.0435C66.9346 12.0435 67.672 12.2116 68.3188 12.548C68.9785 12.8714 69.496 13.3759 69.8711 14.0615C70.2463 14.7342 70.4338 15.6009 70.4338 16.6617V22.6382H67.4068V17.1274C67.4068 16.2865 67.2192 15.6656 66.844 15.2646C66.4818 14.8635 65.9644 14.663 65.2917 14.663C64.8131 14.663 64.3797 14.7665 63.9916 14.9735C63.6165 15.1675 63.3189 15.4715 63.099 15.8855C62.892 16.2995 62.7885 16.8298 62.7885 17.4767V22.6382H59.7615V12.1987H62.6527V15.0899L62.1094 14.2167C62.4845 13.5182 63.0214 12.9813 63.72 12.6062C64.4185 12.231 65.2141 12.0435 66.1067 12.0435ZM71.1403 24.5786L77.5437 6.2998H80.2409L73.8375 24.5786H71.1403ZM85.0739 22.871C83.9872 22.871 82.9459 22.7287 81.9498 22.4441C80.9537 22.1466 80.1517 21.765 79.5437 21.2993L80.6109 18.932C81.193 19.3459 81.8786 19.6887 82.6678 19.9604C83.4698 20.2191 84.2783 20.3485 85.0933 20.3485C85.7142 20.3485 86.2123 20.2903 86.5874 20.1738C86.9755 20.0445 87.2601 19.8698 87.4412 19.6499C87.6223 19.43 87.7129 19.1778 87.7129 18.8932C87.7129 18.5309 87.5706 18.2464 87.286 18.0394C87.0014 17.8195 86.6262 17.6448 86.1605 17.5155C85.6948 17.3732 85.1774 17.2438 84.6082 17.1274C84.0519 16.998 83.4892 16.8428 82.92 16.6617C82.3638 16.4806 81.8528 16.2477 81.3871 15.9631C80.9214 15.6785 80.5398 15.3034 80.2422 14.8377C79.9576 14.372 79.8153 13.7769 79.8153 13.0525C79.8153 12.2763 80.0223 11.5713 80.4363 10.9374C80.8632 10.2906 81.497 9.77963 82.3379 9.40448C83.1917 9.0164 84.2589 8.82236 85.5396 8.82236C86.3934 8.82236 87.2342 8.92584 88.0621 9.13282C88.8901 9.32687 89.6209 9.6244 90.2548 10.0254L89.2846 12.4121C88.6507 12.0499 88.0169 11.7847 87.383 11.6166C86.7491 11.4355 86.1282 11.3449 85.5202 11.3449C84.9122 11.3449 84.4141 11.4161 84.0261 11.5584C83.638 11.7007 83.3598 11.8882 83.1917 12.1211C83.0235 12.341 82.9394 12.5997 82.9394 12.8972C82.9394 13.2465 83.0817 13.5311 83.3663 13.751C83.6509 13.958 84.0261 14.1262 84.4918 14.2555C84.9575 14.3849 85.4684 14.5143 86.0247 14.6436C86.5939 14.773 87.1566 14.9218 87.7129 15.0899C88.2821 15.2581 88.7995 15.4845 89.2652 15.7691C89.7309 16.0537 90.1061 16.4288 90.3906 16.8945C90.6882 17.3602 90.8369 17.9488 90.8369 18.6603C90.8369 19.4235 90.6235 20.1221 90.1966 20.756C89.7697 21.3898 89.1294 21.9008 88.2756 22.2889C87.4347 22.677 86.3675 22.871 85.0739 22.871ZM92.7715 22.6382V12.1987H95.7985V22.6382H92.7715ZM94.285 10.7434C93.7287 10.7434 93.276 10.5817 92.9267 10.2583C92.5774 9.93487 92.4028 9.53384 92.4028 9.05521C92.4028 8.57657 92.5774 8.17555 92.9267 7.85214C93.276 7.52874 93.7287 7.36704 94.285 7.36704C94.8412 7.36704 95.294 7.52227 95.6433 7.83274C95.9926 8.13027 96.1672 8.51836 96.1672 8.99699C96.1672 9.5015 95.9926 9.92193 95.6433 10.2583C95.3069 10.5817 94.8542 10.7434 94.285 10.7434ZM103.517 26.5578C102.534 26.5578 101.583 26.4349 100.665 26.1892C99.7592 25.9563 99.0024 25.6006 98.3944 25.1219L99.5975 22.9487C100.037 23.3109 100.594 23.5955 101.266 23.8024C101.952 24.0224 102.625 24.1323 103.284 24.1323C104.358 24.1323 105.134 23.893 105.613 23.4144C106.104 22.9357 106.35 22.2242 106.35 21.2799V19.7081L106.544 17.0886L106.505 14.4496V12.1987H109.377V20.8918C109.377 22.8322 108.873 24.2617 107.864 25.1801C106.855 26.0986 105.406 26.5578 103.517 26.5578ZM103.051 22.1337C102.081 22.1337 101.202 21.9267 100.412 21.5127C99.6363 21.0858 99.0089 20.4972 98.5303 19.7469C98.0646 18.9837 97.8317 18.0976 97.8317 17.0886C97.8317 16.0666 98.0646 15.1805 98.5303 14.4302C99.0089 13.667 99.6363 13.0784 100.412 12.6644C101.202 12.2504 102.081 12.0435 103.051 12.0435C103.931 12.0435 104.707 12.2246 105.38 12.5868C106.053 12.9361 106.577 13.4858 106.952 14.2361C107.327 14.9735 107.514 15.9243 107.514 17.0886C107.514 18.2399 107.327 19.1907 106.952 19.941C106.577 20.6784 106.053 21.2281 105.38 21.5904C104.707 21.9526 103.931 22.1337 103.051 22.1337ZM103.653 19.6499C104.183 19.6499 104.656 19.5464 105.07 19.3395C105.483 19.1195 105.807 18.8155 106.04 18.4275C106.273 18.0394 106.389 17.5931 106.389 17.0886C106.389 16.5711 106.273 16.1248 106.04 15.7497C105.807 15.3616 105.483 15.0641 105.07 14.8571C104.656 14.6372 104.183 14.5272 103.653 14.5272C103.123 14.5272 102.65 14.6372 102.236 14.8571C101.823 15.0641 101.493 15.3616 101.247 15.7497C101.014 16.1248 100.898 16.5711 100.898 17.0886C100.898 17.5931 101.014 18.0394 101.247 18.4275C101.493 18.8155 101.823 19.1195 102.236 19.3395C102.65 19.5464 103.123 19.6499 103.653 19.6499ZM118.54 12.0435C119.368 12.0435 120.105 12.2116 120.752 12.548C121.412 12.8714 121.929 13.3759 122.304 14.0615C122.679 14.7342 122.867 15.6009 122.867 16.6617V22.6382H119.84V17.1274C119.84 16.2865 119.652 15.6656 119.277 15.2646C118.915 14.8635 118.398 14.663 117.725 14.663C117.246 14.663 116.813 14.7665 116.425 14.9735C116.05 15.1675 115.752 15.4715 115.532 15.8855C115.325 16.2995 115.222 16.8298 115.222 17.4767V22.6382H112.195V12.1987H115.086V15.0899L114.543 14.2167C114.918 13.5182 115.455 12.9813 116.153 12.6062C116.852 12.231 117.647 12.0435 118.54 12.0435ZM135.511 22.7934C134.644 22.7934 133.868 22.6252 133.182 22.2889C132.51 21.9526 131.986 21.4416 131.611 20.756C131.236 20.0574 131.048 19.1713 131.048 18.0976V12.1987H134.075V17.6513C134.075 18.518 134.256 19.1584 134.618 19.5723C134.994 19.9733 135.517 20.1738 136.19 20.1738C136.656 20.1738 137.07 20.0768 137.432 19.8828C137.794 19.6758 138.079 19.3653 138.286 18.9514C138.493 18.5245 138.596 17.9941 138.596 17.3602V12.1987H141.623V22.6382H138.752V19.7664L139.275 20.6007C138.926 21.3252 138.409 21.8749 137.723 22.2501C137.05 22.6123 136.313 22.7934 135.511 22.7934ZM150.598 22.7934C149.719 22.7934 148.949 22.5994 148.289 22.2113C147.629 21.8232 147.112 21.2346 146.737 20.4455C146.375 19.6435 146.194 18.6344 146.194 17.4184C146.194 16.1895 146.368 15.1805 146.717 14.3914C147.067 13.6023 147.571 13.0137 148.231 12.6256C148.891 12.2375 149.68 12.0435 150.598 12.0435C151.581 12.0435 152.461 12.2698 153.237 12.7226C154.026 13.1624 154.647 13.7834 155.1 14.5854C155.566 15.3875 155.799 16.3318 155.799 17.4184C155.799 18.518 155.566 19.4688 155.1 20.2709C154.647 21.0729 154.026 21.6938 153.237 22.1337C152.461 22.5735 151.581 22.7934 150.598 22.7934ZM144.428 26.4026V12.1987H147.319V14.3332L147.261 17.4378L147.455 20.5231V26.4026H144.428ZM150.074 20.3097C150.579 20.3097 151.025 20.1932 151.413 19.9604C151.814 19.7275 152.131 19.3977 152.364 18.9708C152.61 18.5309 152.733 18.0135 152.733 17.4184C152.733 16.8104 152.61 16.293 152.364 15.8661C152.131 15.4392 151.814 15.1093 151.413 14.8765C151.025 14.6436 150.579 14.5272 150.074 14.5272C149.57 14.5272 149.117 14.6436 148.716 14.8765C148.315 15.1093 147.998 15.4392 147.765 15.8661C147.532 16.293 147.416 16.8104 147.416 17.4184C147.416 18.0135 147.532 18.5309 147.765 18.9708C147.998 19.3977 148.315 19.7275 148.716 19.9604C149.117 20.1932 149.57 20.3097 150.074 20.3097Z" fill="white"/>
<defs>
<linearGradient id="paint0_linear_1_390" x1="3.5" y1="-1.51898e-05" x2="166.5" y2="32" gradientUnits="userSpaceOnUse">
<stop stop-color="#569ED1"/>
<stop offset="0.395833" stop-color="#EA322E"/>
<stop offset="0.9999" stop-color="#F9B119"/>
</linearGradient>
</defs>
</svg>
