<svg width="155" height="43" viewBox="0 0 155 43" fill="none" xmlns="http://www.w3.org/2000/svg">
<path d="M29.8077 1.82979C29.9329 2.07801 30.0893 2.1844 30.2771 2.14894C30.4962 2.11348 30.7152 2.13121 30.9343 2.20213L31.4506 2.41489C31.6384 2.45035 31.7792 2.50355 31.8731 2.57447C31.967 2.60993 32.0609 2.66312 32.1548 2.73404C32.4677 2.69858 32.8276 2.80496 33.2344 3.05319C33.6725 3.26596 33.9229 3.42553 33.9855 3.53191C33.6099 5.02128 33.2188 6.47518 32.8119 7.89362C32.4364 9.2766 32.0765 10.6773 31.7323 12.0957C31.6384 12.4149 31.5289 12.8227 31.4037 13.3191C31.3098 13.7801 31.2003 14.2766 31.0751 14.8085C30.9812 15.305 30.8717 15.7837 30.7465 16.2447C30.6213 16.6702 30.5118 17.0071 30.4179 17.2553L30.1832 18.0532C29.6199 20.6064 29.041 23.1418 28.4464 25.6596C27.8518 28.1418 27.1946 30.6596 26.4749 33.2128C26.2245 34.0284 26.0211 34.8794 25.8646 35.766C25.7395 36.617 25.5673 37.4681 25.3483 38.3191C25.0979 38.7447 24.9571 39.117 24.9258 39.4362C24.9258 39.7553 24.9102 40.0745 24.8789 40.3936C24.8476 40.7128 24.785 41.0142 24.6911 41.2979C24.6285 41.5816 24.5033 41.7766 24.3156 41.883C24.3156 42.1667 24.253 42.3794 24.1278 42.5213C24.0339 42.6631 23.9557 42.8227 23.8931 43C23.6427 43 23.3767 42.8759 23.0951 42.6277C22.8447 42.3794 22.61 42.1489 22.391 41.9362C22.2345 41.6525 22.0937 41.3511 21.9685 41.0319C21.8433 40.6773 21.7494 40.3404 21.6869 40.0213C21.4052 38.5674 21.1079 37.1312 20.795 35.7128C20.482 34.2943 20.1691 32.8759 19.8561 31.4574C19.8561 31.3511 19.8249 31.1738 19.7623 30.9255C19.731 30.6773 19.684 30.4113 19.6214 30.1277C19.5589 29.844 19.4963 29.5957 19.4337 29.383C19.4024 29.1702 19.3711 29.0284 19.3398 28.9574C19.152 27.6099 18.9017 26.2801 18.5887 24.9681C18.3071 23.6206 17.9472 22.3262 17.5091 21.0851C17.5091 20.8723 17.4778 20.6596 17.4152 20.4468C17.3526 20.234 17.3213 20.0213 17.3213 19.8085C17.2587 19.6667 17.2118 19.4894 17.1805 19.2766C17.1492 19.0638 17.071 18.922 16.9458 18.8511C16.7893 18.8511 16.6954 18.9574 16.6641 19.1702C16.6641 19.383 16.6641 19.578 16.6641 19.7553C16.4451 20.5709 16.273 21.2447 16.1478 21.7766C16.0226 22.3085 15.9444 22.8404 15.9131 23.3723C15.7253 23.7624 15.6314 24.2234 15.6314 24.7553C15.5376 24.9326 15.475 25.1454 15.4437 25.3936C15.4124 25.6418 15.3654 25.8723 15.3028 26.0851C14.7708 28.3546 14.2076 30.5177 13.613 32.5745C13.5504 32.8227 13.5034 33.0887 13.4721 33.3723C13.4408 33.6206 13.3939 33.8865 13.3313 34.1702C13.1436 35.0922 12.9871 35.9965 12.8619 36.883C12.7367 37.7695 12.6115 38.6738 12.4864 39.5957C12.4238 39.9149 12.3612 40.1277 12.2986 40.234C12.236 40.3404 12.1734 40.4113 12.1108 40.4468C12.0483 40.4823 11.9857 40.5177 11.9231 40.5532C11.8918 40.5532 11.8761 40.6064 11.8761 40.7128C11.7197 40.9965 11.6727 41.1738 11.7353 41.2447C11.7979 41.3156 11.8292 41.3865 11.8292 41.4574C11.8292 41.5284 11.7353 41.5638 11.5475 41.5638C11.3911 41.5993 11.2815 41.617 11.219 41.617C10.9686 41.5106 10.7652 41.5284 10.6087 41.6702C10.4835 41.8121 10.374 41.883 10.2801 41.883C10.1863 41.7057 10.0767 41.5461 9.95154 41.4043C9.82637 41.2979 9.73249 41.2801 9.6699 41.3511C9.35696 41.1738 9.15354 41.0674 9.05966 41.0319C8.99707 40.9965 8.93448 40.9433 8.8719 40.8723C8.80931 40.4113 8.68413 39.9681 8.49637 39.5425C8.33989 39.0816 8.19907 38.6383 8.0739 38.2128C7.94872 37.7163 7.85484 37.2199 7.79225 36.7234C7.72966 36.1915 7.65142 35.6596 7.55754 35.1277C7.49495 34.8794 7.40107 34.578 7.27589 34.2234C7.18201 33.8688 7.13507 33.5851 7.13507 33.3723C7.07248 32.9468 7.02554 32.6631 6.99425 32.5213C6.99425 32.3794 6.96295 32.2553 6.90036 32.1489C6.90036 31.5816 6.79083 30.9433 6.57177 30.234C6.35272 29.4894 6.19625 28.8156 6.10236 28.2128C5.75813 26.156 5.3826 24.2057 4.97577 22.3617C4.91318 22.078 4.83495 21.8121 4.74107 21.5638C4.64718 21.3156 4.5533 21.0496 4.45942 20.766C4.30295 20.234 4.16212 19.7021 4.03695 19.1702C3.91177 18.6028 3.77095 18.0355 3.61448 17.4681C3.4893 17.0071 3.36412 16.5638 3.23895 16.1383C3.14506 15.6773 3.03553 15.1986 2.91036 14.7021C2.84777 14.4894 2.76953 14.2766 2.67565 14.0638C2.58177 13.8511 2.48789 13.6206 2.394 13.3723C2.26883 12.8759 2.1593 12.4149 2.06541 11.9894C1.97153 11.5284 1.862 11.0851 1.73683 10.6596C1.48647 9.70213 1.22047 8.76241 0.938825 7.84043C0.688472 6.88298 0.438118 5.92553 0.187765 4.96808C0.187765 4.71986 0.172118 4.54255 0.140824 4.43617C0.10953 4.29433 0.10953 4.13475 0.140824 3.95745C0.0782354 3.8156 0.0312942 3.65603 0 3.47872C0 3.30142 0 3.12411 0 2.94681V2.20213C0.156471 2.13121 0.406824 2.04255 0.75106 1.93617C1.0953 1.79433 1.34565 1.7234 1.50212 1.7234C1.90894 1.75887 2.20624 1.75887 2.394 1.7234C2.58177 1.68794 2.73824 1.59929 2.86342 1.45745C2.9573 1.45745 3.03553 1.47518 3.09812 1.51064C3.192 1.5461 3.28589 1.56383 3.37977 1.56383C3.7553 1.45745 3.97436 1.43972 4.03695 1.51064C4.16212 1.47518 4.25601 1.42199 4.31859 1.35106C4.38118 1.24468 4.49071 1.19149 4.64718 1.19149C4.70977 1.19149 4.78801 1.28014 4.88189 1.45745C4.97577 1.63475 5.05401 1.75887 5.1166 1.82979C5.17918 2.00709 5.24177 2.1844 5.30436 2.3617C5.36695 2.50355 5.42954 2.66312 5.49213 2.84043C5.67989 3.37234 5.83636 3.97518 5.96154 4.64894C6.11801 5.3227 6.29013 5.96099 6.47789 6.56383C6.63436 6.9539 6.75954 7.37943 6.85342 7.84043C6.9473 8.26596 7.05683 8.69149 7.18201 9.11702C7.2446 9.29433 7.30719 9.47163 7.36978 9.64894C7.43236 9.82624 7.49495 10.0035 7.55754 10.1809C7.65142 10.6064 7.74531 11.0142 7.83919 11.4043C7.96436 11.7589 8.07389 12.1312 8.16778 12.5213C8.54331 13.7624 8.88754 15.0213 9.20049 16.2979C9.54472 17.539 9.84201 18.7801 10.0924 20.0213C10.155 20.3759 10.2332 20.7837 10.3271 21.2447C10.421 21.7057 10.5618 22.078 10.7495 22.3617C10.8747 22.2553 10.953 22.0603 10.9843 21.7766C11.0468 21.4929 11.1094 21.2624 11.172 21.0851C11.2346 20.8723 11.2815 20.6596 11.3128 20.4468C11.3754 20.234 11.438 20.0213 11.5006 19.8085C11.5945 19.3121 11.6884 18.8511 11.7823 18.4255C11.8761 17.9645 11.9857 17.5035 12.1108 17.0426C12.2673 16.2624 12.4238 15.4823 12.5803 14.7021C12.7367 13.8865 12.9088 13.0709 13.0966 12.2553C13.2218 11.7589 13.347 11.2447 13.4721 10.7128C13.5973 10.1809 13.7225 9.66667 13.8477 9.17021C13.9103 8.92199 13.9572 8.67376 13.9885 8.42553C14.0511 8.1773 14.1137 7.91135 14.1763 7.62766C14.2701 7.34397 14.364 7.06028 14.4579 6.7766C14.5831 6.49291 14.677 6.20922 14.7396 5.92553C14.9586 5.21631 15.162 4.50709 15.3498 3.79787C15.5376 3.05319 15.7723 2.3617 16.0539 1.7234C16.1165 1.65248 16.1791 1.59929 16.2417 1.56383C16.3043 1.49291 16.3825 1.42199 16.4764 1.35106C16.758 1.63475 16.9458 1.86525 17.0397 2.04255C17.1336 2.1844 17.29 2.25532 17.5091 2.25532C17.6343 2.3617 17.7125 2.50355 17.7438 2.68085C17.8064 2.82269 17.9316 2.87589 18.1193 2.84043C18.2132 2.91135 18.2758 3.01773 18.3071 3.15957C18.3697 3.26596 18.4636 3.35461 18.5887 3.42553C18.7139 3.74468 18.7921 3.88652 18.8234 3.85106C18.8547 3.8156 18.9173 3.8156 19.0112 3.85106C19.0738 3.95745 19.2459 4.08156 19.5276 4.2234C19.8405 4.36525 20.0596 4.47163 20.1847 4.54255C20.1847 4.6844 20.2004 4.80851 20.2317 4.91489C20.2943 5.02128 20.3256 5.14539 20.3256 5.28723C20.3256 5.46454 20.263 5.76596 20.1378 6.19149C20.0439 6.61702 19.9657 6.9539 19.9031 7.20213C20.0596 7.27305 20.1691 7.30851 20.2317 7.30851C20.2943 7.27305 20.3569 7.25532 20.4194 7.25532C20.7324 7.85816 20.9201 8.53191 20.9827 9.2766C21.0766 9.98581 21.1549 10.6418 21.2174 11.2447C21.28 11.5284 21.327 11.8121 21.3583 12.0957C21.4209 12.344 21.4834 12.6099 21.546 12.8936C21.7025 13.6028 21.8433 14.3121 21.9685 15.0213C22.125 15.695 22.2814 16.3865 22.4379 17.0957C22.4379 17.273 22.5005 17.4681 22.6257 17.6809C22.6257 17.8936 22.6726 18.2482 22.7665 18.7447C22.8917 19.2057 23.0169 19.7021 23.142 20.234C23.2672 20.7305 23.408 21.2092 23.5645 21.6702C23.721 22.1312 23.8462 22.4681 23.94 22.6809C24.0965 22.5745 24.1904 22.3262 24.2217 21.9362C24.253 21.5461 24.3312 21.2624 24.4564 21.0851C24.8319 19.2057 25.2231 17.344 25.6299 15.5C26.068 13.656 26.5062 11.7766 26.9443 9.8617C27.2259 8.58511 27.5076 7.3617 27.7892 6.19149C28.1022 5.02128 28.462 3.8156 28.8689 2.57447C28.9315 2.43262 28.9627 2.21986 28.9627 1.93617C29.3383 1.82979 29.6043 1.86525 29.7607 2.04255L29.8077 1.82979Z" fill="url(#paint0_linear_1_381)"/>
<path d="M38.6796 40.1809C38.5857 40.2518 38.4918 40.3227 38.3979 40.3936C38.3041 40.4645 38.2102 40.5355 38.1163 40.6064C37.7721 40.8191 37.4591 40.9433 37.1775 40.9787C36.8958 40.9787 36.5829 41.156 36.2386 41.5106C36.1135 41.3333 36.0196 41.2447 35.957 41.2447C35.8944 41.2447 35.7849 41.2447 35.6284 41.2447C35.2216 41.2447 34.9869 41.1206 34.9243 40.8723C34.7991 40.9078 34.5957 40.9965 34.3141 41.1383C34.0637 41.2801 33.8759 41.3865 33.7508 41.4574C34.0324 40.9965 34.2202 40.6418 34.3141 40.3936C34.4079 40.1454 34.4549 39.9149 34.4549 39.7021C34.4862 39.4894 34.5018 39.2766 34.5018 39.0638C34.5331 38.8156 34.6113 38.4787 34.7365 38.0532C34.7991 37.9113 34.8461 37.7695 34.8773 37.6277C34.9086 37.4858 34.9556 37.3262 35.0182 37.1489C35.1746 36.617 35.2998 36.0142 35.3937 35.3404C35.5189 34.6667 35.7066 34.0816 35.957 33.5851C35.957 32.9823 36.0665 32.4149 36.2856 31.883C36.5359 31.3511 36.7393 30.8014 36.8958 30.234C36.9584 30.0213 37.0366 29.8085 37.1305 29.5957C37.2557 29.383 37.3496 29.1702 37.4122 28.9574C37.5373 28.6028 37.6312 28.266 37.6938 27.9468C37.7877 27.5922 37.8816 27.2553 37.9755 26.9362C38.2258 25.9078 38.4762 24.8972 38.7265 23.9043C38.9769 22.8759 39.2116 21.8475 39.4306 20.8191C39.4619 20.6418 39.4932 20.4468 39.5245 20.234C39.5871 20.0213 39.6497 19.8262 39.7123 19.6489C39.8688 19.117 39.9626 18.5851 39.9939 18.0532C40.0565 17.4858 40.213 16.9539 40.4634 16.4574C40.4321 16.2092 40.4321 15.9787 40.4634 15.766C40.5259 15.5532 40.5885 15.3227 40.6511 15.0745C40.7137 14.8262 40.7763 14.5957 40.8389 14.383C40.9015 14.1702 40.9484 14.0106 40.9797 13.9043C41.1362 13.4433 41.2457 13.0355 41.3083 12.6809C41.4022 12.2908 41.5743 11.883 41.8247 11.4574C41.8247 11.4574 41.8716 11.2801 41.9655 10.9255C42.0594 10.5355 42.1689 10.1099 42.2941 9.64894C42.4192 9.18794 42.5288 8.76241 42.6227 8.37234C42.7165 7.94681 42.7635 7.69858 42.7635 7.62766C42.8261 7.34397 42.873 7.07801 42.9043 6.82979C42.9669 6.58156 43.0295 6.3156 43.0921 6.03191C43.1547 5.85461 43.2172 5.71277 43.2798 5.60638C43.3424 5.46454 43.405 5.30496 43.4676 5.12766C43.5615 4.73759 43.6554 4.25887 43.7492 3.69149C43.8431 3.12411 43.9683 2.68085 44.1248 2.3617C44.2187 2.11348 44.3908 1.91844 44.6411 1.7766C44.9228 1.59929 45.1575 1.42199 45.3452 1.24468C45.9085 1.3156 46.3154 1.28014 46.5657 1.1383C46.8474 0.996454 47.1134 0.819149 47.3637 0.606383C47.5202 0.641844 47.661 0.695035 47.7862 0.765957C47.9427 0.801418 48.0991 0.819149 48.2556 0.819149C48.8502 1.56383 49.257 2.32624 49.4761 3.10638C49.7264 3.88652 49.9611 4.66667 50.1802 5.44681C50.2741 5.83688 50.368 6.22695 50.4618 6.61702C50.5557 6.97163 50.6653 7.32624 50.7904 7.68085C50.8217 7.78723 50.8687 7.91135 50.9313 8.05319C50.9938 8.15957 51.0564 8.28369 51.119 8.42553C51.2755 8.70922 51.4007 9.01064 51.4945 9.32979C51.6197 9.64894 51.7293 9.96808 51.8231 10.2872C52.0109 10.5355 52.1517 10.8369 52.2456 11.1915C52.3395 11.5106 52.4177 11.8475 52.4803 12.2021C52.5742 12.5213 52.6681 12.8404 52.762 13.1596C52.8558 13.4433 52.9967 13.6915 53.1844 13.9043C53.247 14.2943 53.3566 14.6844 53.513 15.0745C53.6695 15.4291 53.779 15.8191 53.8416 16.2447C54.0294 16.5284 54.2484 17.078 54.4988 17.8936C54.7491 18.6738 54.9995 19.5248 55.2498 20.4468C55.5002 21.3688 55.7349 22.2553 55.954 23.1064C56.173 23.9574 56.3295 24.5603 56.4234 24.9149C56.486 25.1986 56.6111 25.5709 56.7989 26.0319C56.9867 26.4574 57.1588 26.8475 57.3153 27.2021C57.4404 27.5922 57.5656 28 57.6908 28.4255C57.8473 28.8511 57.9724 29.2589 58.0663 29.6489C58.1289 30.039 58.1915 30.4113 58.2541 30.766C58.348 31.1206 58.4419 31.4929 58.5357 31.883C58.5983 32.1312 58.6922 32.3617 58.8174 32.5745C58.9426 32.7518 59.0364 32.9823 59.099 33.266C59.2242 33.5496 59.3024 33.8156 59.3337 34.0638C59.3963 34.3121 59.5059 34.578 59.6623 34.8617C59.631 35.2518 59.6467 35.5 59.7093 35.6064C59.7719 35.7128 59.8344 35.8369 59.897 35.9787C60.0222 36.7234 60.163 37.3262 60.3195 37.7872C60.476 38.2128 60.5542 38.6738 60.5542 39.1702C60.5542 39.5957 60.476 39.8617 60.3195 39.9681C60.1943 40.0745 60.0222 40.2518 59.8031 40.5C59.5528 40.7482 59.3337 40.9433 59.146 41.0851C58.9895 41.2269 58.7391 41.2979 58.3949 41.2979C58.0194 41.2624 57.7847 41.3156 57.6908 41.4574C57.6282 41.6348 57.5813 41.7589 57.55 41.8298C57.1744 41.7943 56.9241 41.7766 56.7989 41.7766C56.705 41.8121 56.5955 41.8298 56.4703 41.8298C56.3764 41.8298 56.2669 41.8475 56.1417 41.883C56.0478 41.9539 55.9383 42.078 55.8131 42.2553C55.5941 41.9716 55.375 41.7057 55.156 41.4574C54.9682 41.2447 54.7961 40.9965 54.6396 40.7128C54.6396 40.1099 54.5614 39.4007 54.4049 38.5851C54.2797 37.7695 54.1389 37.1312 53.9824 36.6702C53.6695 35.7482 53.3722 34.844 53.0906 33.9574C52.8402 33.0709 52.5898 32.1667 52.3395 31.2447C52.2456 30.8546 52.1361 30.5 52.0109 30.1809C51.917 29.8617 51.8075 29.5248 51.6823 29.1702C51.7449 29.4539 51.7605 29.7553 51.7293 30.0745C51.7293 30.3582 51.651 30.6418 51.4945 30.9255C51.432 30.9965 51.3381 31.0851 51.2129 31.1915C51.0877 31.2979 51.0251 31.3865 51.0251 31.4574C50.6496 31.8121 50.321 32.1489 50.0394 32.4681C50.0707 33.1064 49.9924 33.5496 49.8047 33.7979C49.6169 34.0461 49.4135 34.2766 49.1944 34.4894C48.6624 34.5248 48.3338 34.4894 48.2087 34.383C48.0835 34.2766 47.9114 34.2057 47.6923 34.1702C47.5671 34.1348 47.442 34.1348 47.3168 34.1702C47.1916 34.1702 47.0664 34.1702 46.9412 34.1702C46.6909 34.1702 46.4562 34.0993 46.2371 33.9574C46.1432 33.8865 46.065 33.8156 46.0024 33.7447C45.9711 33.6738 45.9242 33.6028 45.8616 33.5319C45.6112 33.2482 45.314 33.0177 44.9697 32.8404C44.6568 32.6277 44.3438 32.4504 44.0309 32.3085C43.7805 32.0603 43.5145 31.8121 43.2329 31.5638C42.9825 31.2801 42.7165 31.0496 42.4349 30.8723C42.1845 31.5461 41.9811 32.1489 41.8247 32.6809C41.6995 33.1773 41.543 33.6738 41.3552 34.1702C41.011 35.3759 40.7294 36.4397 40.5103 37.3617C40.2912 38.2482 40.0409 39.1525 39.7592 40.0745C39.6341 40.1099 39.5089 40.1631 39.3837 40.234C39.2898 40.305 39.1646 40.3404 39.0082 40.3404L38.6796 40.1809ZM43.2798 28.8511C43.5302 28.3546 43.7492 28.0887 43.937 28.0532C44.1561 27.9823 44.3438 27.8404 44.5003 27.6277C44.5629 27.5567 44.6255 27.4681 44.6881 27.3617C44.782 27.2553 44.8758 27.1489 44.9697 27.0426C45.0636 26.9716 45.1731 26.9007 45.2983 26.8298C45.4235 26.7589 45.533 26.6702 45.6269 26.5638C45.8772 26.3156 46.0807 26.1028 46.2371 25.9255C46.4249 25.7482 46.6909 25.6596 47.0351 25.6596C47.5671 25.6596 48.0052 25.8191 48.3495 26.1383C48.6937 26.422 49.1162 26.617 49.6169 26.7234C49.6795 26.9362 49.8829 27.0957 50.2271 27.2021C50.5714 27.273 50.8374 27.3794 51.0251 27.5213C50.7122 26.6347 50.4618 25.7482 50.2741 24.8617C50.1176 23.9397 49.9142 23.0355 49.6638 22.1489C49.4761 21.3688 49.257 20.6064 49.0067 19.8617C48.7563 19.0816 48.506 18.3369 48.2556 17.6277C48.0365 16.9184 47.8488 16.227 47.6923 15.5532C47.5358 14.8794 47.3324 14.2234 47.0821 13.5851C46.8317 14.2234 46.5814 15.0035 46.331 15.9255C46.0807 16.8475 45.8929 17.6631 45.7677 18.3723C45.7677 18.6915 45.7521 18.9397 45.7208 19.117C45.6582 19.3652 45.5956 19.5957 45.533 19.8085C45.4704 19.9858 45.4078 20.1809 45.3452 20.3936C44.9384 21.7766 44.5629 23.1773 44.2187 24.5957C43.9057 26.0142 43.5302 27.4326 43.0921 28.8511H43.2798Z" fill="url(#paint1_linear_1_381)"/>
<path d="M82.3349 3C82.2724 3.14184 82.2411 3.28369 82.2411 3.42553C82.2724 3.56738 82.288 3.72695 82.288 3.90426C82.2254 4.32979 82.2254 4.54255 82.288 4.54255C82.3506 4.54255 82.3819 4.57801 82.3819 4.64894L82.0533 5.18085C82.0533 5.39362 82.0064 5.58865 81.9125 5.76596C81.8499 5.94326 81.8342 6.15603 81.8655 6.40425C81.7716 6.58156 81.6778 6.75887 81.5839 6.93617C81.5213 7.11348 81.4118 7.29078 81.2553 7.46808H80.6451C80.3008 7.46808 79.9253 7.50355 79.5185 7.57447C79.1429 7.60993 78.7674 7.62766 78.3919 7.62766C78.3293 7.62766 78.2511 7.62766 78.1572 7.62766C78.0633 7.5922 77.9694 7.57447 77.8755 7.57447C77.8129 7.57447 77.7347 7.5922 77.6408 7.62766C77.5469 7.62766 77.4374 7.62766 77.3122 7.62766C76.8428 7.62766 76.3734 7.60993 75.904 7.57447C75.4659 7.50355 74.9965 7.46808 74.4958 7.46808C74.3706 7.46808 74.2454 7.46808 74.1202 7.46808C73.9951 7.46808 73.8542 7.48582 73.6978 7.52128C73.6665 8.12411 73.6352 8.74468 73.6039 9.38298C73.6039 9.98582 73.6039 10.6064 73.6039 11.2447C73.6039 11.422 73.5882 11.617 73.5569 11.8298C73.5256 12.0071 73.51 12.1844 73.51 12.3617C73.4787 12.8227 73.4474 13.266 73.4161 13.6915C73.4161 14.117 73.4161 14.5603 73.4161 15.0213C73.4161 16.0142 73.4161 17.0071 73.4161 18C73.4474 18.9929 73.4787 20.0035 73.51 21.0319C73.5413 21.5638 73.5726 22.078 73.6039 22.5745C73.6352 23.0709 73.6508 23.5851 73.6508 24.117C73.6508 25.3227 73.6352 26.5284 73.6039 27.734C73.5726 28.9043 73.5569 30.0922 73.5569 31.2979C73.5569 31.6879 73.5413 32.0603 73.51 32.4149C73.4787 32.734 73.4631 33.0887 73.4631 33.4787C73.4631 34.2943 73.4787 35.1099 73.51 35.9255C73.5413 36.7411 73.5569 37.5567 73.5569 38.3723C73.5569 38.7624 73.5413 39.1525 73.51 39.5425C73.51 39.9326 73.51 40.3227 73.51 40.7128C73.3535 40.9965 73.244 41.2447 73.1814 41.4574C73.1188 41.6702 72.9311 41.7766 72.6181 41.7766C72.3991 41.7057 72.2895 41.617 72.2895 41.5106C72.3208 41.4397 72.3052 41.3688 72.2426 41.2979C71.9609 41.2624 71.7419 41.2801 71.5854 41.3511C71.4602 41.4574 71.3038 41.5461 71.116 41.617C71.0221 41.5816 70.9126 41.5638 70.7874 41.5638C70.6935 41.5638 70.5996 41.5638 70.5058 41.5638C70.4432 41.5638 70.3806 41.5816 70.318 41.617C70.2554 41.6879 70.1146 41.7234 69.8955 41.7234C69.7078 41.7589 69.5982 41.7234 69.5669 41.617C69.5356 41.5106 69.4418 41.4574 69.2853 41.4574C69.1288 41.5638 68.941 41.6348 68.722 41.6702C68.5342 41.7411 68.3465 41.7766 68.1587 41.7766C67.9709 41.6347 67.877 41.4929 67.877 41.3511C67.9083 41.2447 67.8927 41.1206 67.8301 40.9787C67.7988 40.9078 67.7362 40.8191 67.6423 40.7128C67.5797 40.5709 67.5172 40.4645 67.4546 40.3936C67.5172 39.8972 67.5641 39.4539 67.5954 39.0638C67.6267 38.6738 67.6423 38.2482 67.6423 37.7872C67.6423 36.8652 67.6111 35.961 67.5485 35.0745C67.4859 34.1879 67.4546 33.2837 67.4546 32.3617C67.4546 32.078 67.4859 31.7766 67.5485 31.4574C67.6111 31.1383 67.6423 30.8014 67.6423 30.4468C67.5797 30.1631 67.5641 30.0035 67.5954 29.9681C67.6267 29.8972 67.6423 29.8262 67.6423 29.7553C67.6423 29.5426 67.6267 29.3298 67.5954 29.117C67.5954 28.9043 67.5954 28.6915 67.5954 28.4787C67.5954 28.0532 67.5954 27.6277 67.5954 27.2021C67.6267 26.7766 67.6423 26.3511 67.6423 25.9255C67.6423 25.7482 67.6267 25.5709 67.5954 25.3936C67.5954 25.1808 67.5954 24.9858 67.5954 24.8085C67.5641 24.4894 67.5485 24.1525 67.5485 23.7979C67.5798 23.4433 67.5954 23.0887 67.5954 22.734C67.5954 21.0319 67.5641 19.3475 67.5015 17.6809C67.4702 16.0142 67.4546 14.3298 67.4546 12.6277C67.4546 11.8121 67.4859 10.9787 67.5485 10.1277C67.6423 9.2766 67.6893 8.42553 67.6893 7.57447C67.6893 7.46809 67.658 7.32624 67.5954 7.14894C67.5328 6.97163 67.4702 6.84752 67.4076 6.7766C67.2512 6.7766 67.0947 6.7766 66.9382 6.7766C66.813 6.74113 66.6722 6.7234 66.5158 6.7234C66.1715 6.7234 65.8429 6.7766 65.53 6.88298C64.9354 6.91844 64.3565 6.97163 63.7932 7.04255C63.2612 7.07801 62.7135 7.11347 62.1502 7.14894C61.7747 7.11347 61.54 7.11347 61.4461 7.14894C61.3835 7.14894 61.3053 7.14894 61.2114 7.14894C60.961 7.14894 60.7733 7.07801 60.6481 6.93617V6.24468C60.4603 5.81915 60.3821 5.58865 60.4134 5.55319C60.4447 5.51773 60.4603 5.46454 60.4603 5.39362C60.4603 5.28723 60.3821 5.18085 60.2256 5.07447C60.0379 4.93262 59.944 4.71986 59.944 4.43617C59.9127 4.15248 59.8501 3.93972 59.7562 3.79787C59.6623 3.65603 59.6154 3.51418 59.6154 3.37234C59.6154 3.12411 59.6623 2.84043 59.7562 2.52128C60.0379 2.34397 60.3039 2.21986 60.5542 2.14894C60.8359 2.07801 61.1488 1.98936 61.493 1.88298C61.6808 1.81206 61.8529 1.74113 62.0094 1.67021C62.1659 1.59929 62.338 1.5461 62.5257 1.51064C62.7448 1.47518 62.9639 1.45745 63.1829 1.45745C63.402 1.45745 63.621 1.43972 63.8401 1.40426C64.3095 1.29787 64.7946 1.20922 65.2953 1.1383C65.8273 1.06738 66.328 1.03191 66.7974 1.03191C67.2355 1.03191 67.6736 1.10284 68.1118 1.24468C68.5499 1.35106 68.9411 1.40426 69.2853 1.40426C69.786 1.40426 70.2554 1.43972 70.6935 1.51064C71.1629 1.58156 71.648 1.61702 72.1487 1.61702C72.2113 1.61702 72.3052 1.65248 72.4303 1.7234C72.5868 1.75887 72.7589 1.7766 72.9467 1.7766H77.5C77.7504 1.84752 77.9225 1.86525 78.0163 1.82979C78.1415 1.79433 78.2511 1.7766 78.3449 1.7766C78.5953 1.7766 78.83 1.79433 79.0491 1.82979C79.2681 1.86525 79.5028 1.88298 79.7532 1.88298C79.9722 1.88298 80.1444 1.86525 80.2695 1.82979C80.5199 1.86525 80.7546 1.9539 80.9736 2.09574C81.1927 2.20213 81.4431 2.25532 81.7247 2.25532C81.8499 2.3617 81.9438 2.50355 82.0064 2.68085C82.0689 2.82269 82.1785 2.92908 82.3349 3Z" fill="url(#paint2_linear_1_381)"/>
<path d="M92.4743 26.5106C92.5368 26.6879 92.7716 27.078 93.1784 27.6809C93.5852 28.2482 94.039 28.8865 94.5397 29.5957C95.0717 30.2695 95.588 30.9255 96.0887 31.5638C96.5894 32.2021 96.9337 32.6631 97.1214 32.9468C97.716 33.9397 98.3263 34.9149 98.9522 35.8723C99.578 36.8298 100.173 37.8227 100.736 38.8511C100.892 39.0284 101.018 39.2589 101.111 39.5425C101.205 39.7908 101.252 40.0567 101.252 40.3404C101.252 40.6596 101.174 40.8369 101.018 40.8723C100.892 40.8723 100.752 40.9078 100.595 40.9787C100.282 41.2269 100.001 41.3688 99.7502 41.4043C99.4998 41.4397 99.2964 41.4574 99.1399 41.4574C98.7957 41.4574 98.4202 41.4397 98.0133 41.4043C97.6065 41.4043 97.2623 41.4397 96.9806 41.5106C96.8867 41.5461 96.7772 41.5993 96.652 41.6702C96.5269 41.7766 96.433 41.8298 96.3704 41.8298C96.12 41.8298 95.9323 41.7766 95.8071 41.6702C95.7132 41.5993 95.5724 41.5284 95.3846 41.4574C95.1343 41.1383 94.8996 40.8014 94.6805 40.4468C94.4927 40.0922 94.2893 39.7376 94.0703 39.383C93.8825 39.1348 93.6791 38.922 93.46 38.7447C93.241 38.5319 93.0376 38.2837 92.8498 38C92.3491 37.1844 91.8327 36.4043 91.3007 35.6596C90.8 34.9149 90.2837 34.1702 89.7517 33.4255C89.5013 33.0355 89.2197 32.6631 88.9067 32.3085C88.6251 31.9539 88.3591 31.5993 88.1087 31.2447C87.8584 30.8546 87.6237 30.4468 87.4046 30.0213C87.1856 29.5957 86.9508 29.1879 86.7005 28.7979C86.5127 28.4433 86.2467 28.0177 85.9025 27.5213C85.5583 26.9894 85.1984 26.4574 84.8228 25.9255C84.4473 25.3936 84.0561 24.8972 83.6493 24.4362C83.2738 23.9397 82.9452 23.5674 82.6635 23.3191C82.6635 23.0709 82.601 22.8936 82.4758 22.7872C82.3506 22.6809 82.2098 22.5567 82.0533 22.4149C81.9907 22.2376 81.9125 22.078 81.8186 21.9362C81.7247 21.7589 81.6778 21.5638 81.6778 21.3511C81.6778 21.2092 81.6934 21.0851 81.7247 20.9787C81.756 20.8723 81.7873 20.766 81.8186 20.6596C81.8812 20.5177 81.9125 20.3936 81.9125 20.2872C81.9438 20.1454 81.9907 20.0035 82.0533 19.8617C82.2098 19.4007 82.4288 18.9929 82.7105 18.6383C83.0234 18.2837 83.2581 17.8759 83.4146 17.4149C83.4459 17.273 83.4615 17.1489 83.4615 17.0426C83.4615 16.9007 83.4928 16.7589 83.5554 16.617C83.6493 16.4043 83.7901 16.1915 83.9779 15.9787C84.1657 15.766 84.3378 15.5355 84.4942 15.2872C84.6507 14.9681 84.8072 14.6489 84.9637 14.3298C85.1201 14.0106 85.2766 13.6915 85.4331 13.3723C85.8712 12.5567 86.3563 11.7766 86.8883 11.0319C87.4203 10.2518 87.921 9.48936 88.3904 8.74468C88.8285 8.03546 89.2353 7.34397 89.6108 6.67021C89.9864 5.96099 90.3932 5.25177 90.8313 4.54255C91.0504 4.18794 91.3007 3.79787 91.5824 3.37234C91.864 2.91135 92.1457 2.46809 92.4273 2.04255C92.7403 1.61702 93.0532 1.22695 93.3661 0.87234C93.6791 0.482269 93.992 0.198582 94.305 0.0212766C94.837 -0.0496454 95.1812 0.0567376 95.3377 0.340426C95.4941 0.588652 95.7132 0.712766 95.9949 0.712766C96.433 0.819149 96.7303 0.978723 96.8867 1.19149C97.0432 1.40426 97.1997 1.59929 97.3562 1.7766C97.763 1.7766 98.1072 1.86525 98.3889 2.04255C98.6705 2.21986 98.9522 2.48582 99.2338 2.84043C99.1086 3.2305 98.9365 3.58511 98.7174 3.90426C98.5297 4.2234 98.3576 4.56028 98.2011 4.91489C97.9507 5.02128 97.763 5.19858 97.6378 5.44681C97.5439 5.69504 97.3875 5.9078 97.1684 6.08511C96.8242 6.68794 96.4799 7.29078 96.1357 7.89362C95.7914 8.46099 95.4472 9.01064 95.103 9.54255C94.9465 9.75532 94.7587 9.93262 94.5397 10.0745C94.3519 10.1809 94.1954 10.3582 94.0703 10.6064C94.0077 10.7128 93.9607 10.8369 93.9294 10.9787C93.8981 11.0851 93.8512 11.1915 93.7886 11.2979C93.4131 11.9716 92.9906 12.6277 92.5212 13.266C92.0518 13.9043 91.645 14.578 91.3007 15.2872C91.1443 15.5355 91.0191 15.8014 90.9252 16.0851C90.8313 16.3333 90.7218 16.5816 90.5966 16.8298C90.4714 17.0426 90.2837 17.344 90.0333 17.734C89.8143 18.1241 89.5796 18.5319 89.3292 18.9574C89.1101 19.3475 88.9067 19.7376 88.719 20.1277C88.5625 20.4823 88.4843 20.7837 88.4843 21.0319C88.5155 21.2092 88.719 21.5638 89.0945 22.0957C89.47 22.6277 89.8768 23.195 90.315 23.7979C90.7844 24.4007 91.2225 24.9681 91.6293 25.5C92.0674 26.0319 92.3491 26.3688 92.4743 26.5106Z" fill="url(#paint3_linear_1_381)"/>
<path d="M123.643 1.67021C124.019 1.56383 124.285 1.52837 124.441 1.56383C124.598 1.56383 124.754 1.58156 124.911 1.61702C125.098 1.75887 125.255 1.93617 125.38 2.14894C125.38 2.89362 125.364 3.6383 125.333 4.38298C125.333 5.0922 125.333 5.81915 125.333 6.56383C125.333 7.91135 125.349 9.25886 125.38 10.6064C125.411 11.9539 125.411 13.3014 125.38 14.6489C125.443 14.9681 125.458 15.1454 125.427 15.1809C125.396 15.2163 125.38 15.2695 125.38 15.3404C125.38 16.6879 125.411 18.0177 125.474 19.3298C125.537 20.6418 125.568 21.9716 125.568 23.3191V30.3936C125.568 31.9184 125.599 33.4255 125.662 34.9149C125.756 36.4043 125.803 37.8936 125.803 39.383C125.803 39.5248 125.724 39.7199 125.568 39.9681C125.505 40.2518 125.411 40.4823 125.286 40.6596C125.005 40.695 124.739 40.6418 124.488 40.5C124.363 40.5 124.269 40.5532 124.207 40.6596C124.175 40.7305 124.113 40.8014 124.019 40.8723C123.768 40.8723 123.565 40.9433 123.409 41.0851C123.252 41.2269 123.064 41.2979 122.845 41.2979C122.657 41.2979 122.47 41.2624 122.282 41.1915C122.125 41.156 121.938 41.1383 121.719 41.1383C121.656 41.1383 121.562 41.1915 121.437 41.2979C121.312 41.4397 121.218 41.5284 121.155 41.5638C120.999 41.5638 120.858 41.5816 120.733 41.617C120.608 41.6879 120.467 41.7234 120.31 41.7234C120.154 41.5816 120.076 41.3688 120.076 41.0851C120.107 40.8014 120.013 40.6241 119.794 40.5532C119.794 40.3759 119.794 40.1809 119.794 39.9681C119.825 39.7553 119.841 39.5426 119.841 39.3298C119.841 37.9468 119.81 36.5638 119.747 35.1809C119.685 33.7624 119.638 32.3617 119.606 30.9787C119.575 30.3759 119.559 29.7908 119.559 29.2234C119.591 28.6206 119.606 28.0177 119.606 27.4149C119.606 27.0957 119.606 26.7766 119.606 26.4574C119.606 26.1383 119.575 25.8369 119.512 25.5532C119.325 25.5177 119.153 25.5532 118.996 25.6596C118.871 25.7305 118.73 25.766 118.574 25.766C117.916 26.0142 117.478 26.2624 117.259 26.5106C117.071 26.5106 116.915 26.5461 116.79 26.617C116.665 26.6879 116.524 26.7589 116.367 26.8298C116.117 26.9007 115.867 26.9716 115.616 27.0426C115.397 27.078 115.163 27.1489 114.912 27.2553C114.756 27.3262 114.599 27.3972 114.443 27.4681C114.286 27.539 114.13 27.6099 113.973 27.6809C113.629 27.8227 113.285 27.9645 112.941 28.1064C112.596 28.2128 112.252 28.3369 111.908 28.4787C111.564 28.5496 111.266 28.656 111.016 28.7979C110.766 28.9397 110.515 29.0816 110.265 29.2234C110.046 30.8901 109.921 32.4858 109.889 34.0106C109.889 35.5 109.936 36.9894 110.03 38.4787C109.968 38.6915 109.936 38.9397 109.936 39.2234C109.936 39.4716 109.889 39.6844 109.796 39.8617C109.451 39.9681 109.217 39.9858 109.091 39.9149C108.998 39.8085 108.888 39.7199 108.763 39.6489C108.638 39.6844 108.528 39.7553 108.434 39.8617C108.372 39.9681 108.309 40.0567 108.247 40.1277C107.996 40.1277 107.793 40.1986 107.636 40.3404C107.511 40.4468 107.386 40.5355 107.261 40.6064C107.167 40.6418 107.073 40.6418 106.979 40.6064C106.885 40.5709 106.776 40.5887 106.651 40.6596C106.338 40.6596 106.181 40.6241 106.181 40.5532C106.212 40.4468 106.181 40.3936 106.087 40.3936C105.962 40.3936 105.868 40.4645 105.806 40.6064C105.774 40.7128 105.696 40.8014 105.571 40.8723C105.446 40.9433 105.305 40.9965 105.148 41.0319C104.992 41.0319 104.835 41.0674 104.679 41.1383C104.523 40.961 104.444 40.766 104.444 40.5532C104.444 40.3404 104.366 40.1454 104.21 39.9681C104.147 39.4716 104.1 38.9929 104.069 38.5319C104.069 38.0355 104.022 37.539 103.928 37.0426C103.991 36.0496 104.006 35.2518 103.975 34.6489C103.975 34.0461 103.975 33.4255 103.975 32.7872C103.975 32.2199 103.959 31.6525 103.928 31.0851C103.897 30.5177 103.865 29.9504 103.834 29.383C103.771 28.3546 103.709 27.3085 103.646 26.2447C103.615 25.1808 103.599 24.117 103.599 23.0532C103.599 22.1667 103.631 21.2979 103.693 20.4468C103.787 19.5957 103.834 18.727 103.834 17.8404C103.834 17.2376 103.834 16.6525 103.834 16.0851C103.865 15.4823 103.881 14.8794 103.881 14.2766C103.881 13.7801 103.865 13.3014 103.834 12.8404C103.834 12.344 103.834 11.8652 103.834 11.4043C103.834 10.8723 103.865 10.3582 103.928 9.8617C103.991 9.32979 104.022 8.8156 104.022 8.31915C104.022 7.71631 103.991 7.13121 103.928 6.56383C103.865 5.96099 103.834 5.35816 103.834 4.75532C103.834 4.57801 103.85 4.41844 103.881 4.2766C103.912 4.09929 103.928 3.92199 103.928 3.74468C103.897 3.35461 103.912 3.12411 103.975 3.05319C104.037 2.94681 104.1 2.82269 104.163 2.68085C104.319 2.64539 104.491 2.5922 104.679 2.52128C104.867 2.45035 105.039 2.45035 105.195 2.52128C105.383 2.30851 105.633 2.20213 105.946 2.20213C106.291 2.20213 106.541 2.07801 106.697 1.82979C106.917 1.86525 107.057 1.88298 107.12 1.88298C107.214 1.84752 107.292 1.82979 107.355 1.82979C107.636 1.90071 107.777 1.90071 107.777 1.82979C107.808 1.7234 107.871 1.67021 107.965 1.67021C108.121 1.67021 108.356 1.68794 108.669 1.7234C109.013 1.7234 109.248 1.79433 109.373 1.93617C109.686 3.8156 109.858 5.7305 109.889 7.68085C109.921 9.63121 109.936 11.5638 109.936 13.4787C109.936 13.9752 109.952 14.4894 109.983 15.0213C110.015 15.5177 109.999 16.0142 109.936 16.5106C109.936 16.7234 109.921 16.9362 109.889 17.1489C109.858 17.3262 109.843 17.5213 109.843 17.734C109.843 18.3369 109.811 18.9752 109.749 19.6489C109.686 20.2872 109.655 20.9078 109.655 21.5106C110.03 21.7589 110.343 21.8475 110.594 21.7766C110.875 21.6702 111.141 21.5638 111.392 21.4574C111.705 21.3511 111.986 21.2447 112.237 21.1383C112.518 20.9965 112.8 20.8723 113.081 20.766C113.332 20.6241 113.598 20.5177 113.879 20.4468C114.192 20.3404 114.474 20.2518 114.724 20.1809C115.538 19.8617 116.336 19.4716 117.118 19.0106C117.901 18.5496 118.699 18.1773 119.512 17.8936C119.45 15.9433 119.419 14.0106 119.419 12.0957C119.419 10.1454 119.419 8.21277 119.419 6.29787C119.419 5.76596 119.419 5.21631 119.419 4.64894C119.419 4.08156 119.45 3.53191 119.512 3C119.544 2.85816 119.575 2.75177 119.606 2.68085C119.669 2.57447 119.7 2.43262 119.7 2.25532C119.794 2.07801 119.904 1.9539 120.029 1.88298C120.154 1.81206 120.248 1.70567 120.31 1.56383C120.373 1.63475 120.436 1.70567 120.498 1.7766C120.592 1.81206 120.686 1.84752 120.78 1.88298C121.03 1.81206 121.171 1.75887 121.202 1.7234C121.265 1.68794 121.327 1.65248 121.39 1.61702C121.547 1.5461 121.75 1.51064 122 1.51064C122.251 1.51064 122.454 1.51064 122.611 1.51064H123.174L123.643 1.67021Z" fill="url(#paint4_linear_1_381)"/>
<path d="M133.125 40.1809C133.031 40.2518 132.938 40.3227 132.844 40.3936C132.75 40.4645 132.656 40.5355 132.562 40.6064C132.218 40.8191 131.905 40.9433 131.623 40.9787C131.342 40.9787 131.029 41.156 130.684 41.5106C130.559 41.3333 130.465 41.2447 130.403 41.2447C130.34 41.2447 130.231 41.2447 130.074 41.2447C129.667 41.2447 129.433 41.1206 129.37 40.8723C129.245 40.9078 129.041 40.9965 128.76 41.1383C128.509 41.2801 128.322 41.3865 128.197 41.4574C128.478 40.9965 128.666 40.6418 128.76 40.3936C128.854 40.1454 128.901 39.9149 128.901 39.7021C128.932 39.4894 128.948 39.2766 128.948 39.0638C128.979 38.8156 129.057 38.4787 129.182 38.0532C129.245 37.9113 129.292 37.7695 129.323 37.6277C129.354 37.4858 129.401 37.3262 129.464 37.1489C129.62 36.617 129.746 36.0142 129.84 35.3404C129.965 34.6667 130.152 34.0816 130.403 33.5851C130.403 32.9823 130.512 32.4149 130.731 31.883C130.982 31.3511 131.185 30.8014 131.342 30.234C131.404 30.0213 131.482 29.8085 131.576 29.5957C131.702 29.383 131.795 29.1702 131.858 28.9574C131.983 28.6028 132.077 28.266 132.14 27.9468C132.234 27.5922 132.327 27.2553 132.421 26.9362C132.672 25.9078 132.922 24.8972 133.172 23.9043C133.423 22.8759 133.657 21.8475 133.876 20.8191C133.908 20.6418 133.939 20.4468 133.97 20.234C134.033 20.0213 134.096 19.8262 134.158 19.6489C134.315 19.117 134.408 18.5851 134.44 18.0532C134.502 17.4858 134.659 16.9539 134.909 16.4574C134.878 16.2092 134.878 15.9787 134.909 15.766C134.972 15.5532 135.034 15.3227 135.097 15.0745C135.16 14.8262 135.222 14.5957 135.285 14.383C135.347 14.1702 135.394 14.0106 135.426 13.9043C135.582 13.4433 135.692 13.0355 135.754 12.6809C135.848 12.2908 136.02 11.883 136.27 11.4574C136.27 11.4574 136.317 11.2801 136.411 10.9255C136.505 10.5355 136.615 10.1099 136.74 9.64894C136.865 9.18794 136.975 8.76241 137.068 8.37234C137.162 7.94681 137.209 7.69858 137.209 7.62766C137.272 7.34397 137.319 7.07801 137.35 6.82979C137.413 6.58156 137.475 6.3156 137.538 6.03191C137.6 5.85461 137.663 5.71277 137.726 5.60638C137.788 5.46454 137.851 5.30496 137.913 5.12766C138.007 4.73759 138.101 4.25887 138.195 3.69149C138.289 3.12411 138.414 2.68085 138.571 2.3617C138.664 2.11348 138.837 1.91844 139.087 1.7766C139.369 1.59929 139.603 1.42199 139.791 1.24468C140.354 1.3156 140.761 1.28014 141.012 1.1383C141.293 0.996454 141.559 0.819149 141.81 0.606383C141.966 0.641844 142.107 0.695035 142.232 0.765957C142.388 0.801418 142.545 0.819149 142.701 0.819149C143.296 1.56383 143.703 2.32624 143.922 3.10638C144.172 3.88652 144.407 4.66667 144.626 5.44681C144.72 5.83688 144.814 6.22695 144.908 6.61702C145.002 6.97163 145.111 7.32624 145.236 7.68085C145.268 7.78723 145.314 7.91135 145.377 8.05319C145.44 8.15957 145.502 8.28369 145.565 8.42553C145.721 8.70922 145.846 9.01064 145.94 9.32979C146.066 9.64894 146.175 9.96808 146.269 10.2872C146.457 10.5355 146.598 10.8369 146.691 11.1915C146.785 11.5106 146.864 11.8475 146.926 12.2021C147.02 12.5213 147.114 12.8404 147.208 13.1596C147.302 13.4433 147.442 13.6915 147.63 13.9043C147.693 14.2943 147.802 14.6844 147.959 15.0745C148.115 15.4291 148.225 15.8191 148.287 16.2447C148.475 16.5284 148.694 17.078 148.945 17.8936C149.195 18.6738 149.445 19.5248 149.696 20.4468C149.946 21.3688 150.181 22.2553 150.4 23.1064C150.619 23.9574 150.775 24.5603 150.869 24.9149C150.932 25.1986 151.057 25.5709 151.245 26.0319C151.432 26.4574 151.605 26.8475 151.761 27.2021C151.886 27.5922 152.011 28 152.137 28.4255C152.293 28.8511 152.418 29.2589 152.512 29.6489C152.575 30.039 152.637 30.4113 152.7 30.766C152.794 31.1206 152.888 31.4929 152.982 31.883C153.044 32.1312 153.138 32.3617 153.263 32.5745C153.388 32.7518 153.482 32.9823 153.545 33.266C153.67 33.5496 153.748 33.8156 153.78 34.0638C153.842 34.3121 153.952 34.578 154.108 34.8617C154.077 35.2518 154.092 35.5 154.155 35.6064C154.218 35.7128 154.28 35.8369 154.343 35.9787C154.468 36.7234 154.609 37.3262 154.765 37.7872C154.922 38.2128 155 38.6738 155 39.1702C155 39.5957 154.922 39.8617 154.765 39.9681C154.64 40.0745 154.468 40.2518 154.249 40.5C153.999 40.7482 153.78 40.9433 153.592 41.0851C153.435 41.2269 153.185 41.2979 152.841 41.2979C152.465 41.2624 152.23 41.3156 152.137 41.4574C152.074 41.6348 152.027 41.7589 151.996 41.8298C151.62 41.7943 151.37 41.7766 151.245 41.7766C151.151 41.8121 151.041 41.8298 150.916 41.8298C150.822 41.8298 150.713 41.8475 150.588 41.883C150.494 41.9539 150.384 42.078 150.259 42.2553C150.04 41.9716 149.821 41.7057 149.602 41.4574C149.414 41.2447 149.242 40.9965 149.085 40.7128C149.085 40.1099 149.007 39.4007 148.851 38.5851C148.726 37.7695 148.585 37.1312 148.428 36.6702C148.115 35.7482 147.818 34.844 147.536 33.9574C147.286 33.0709 147.036 32.1667 146.785 31.2447C146.691 30.8546 146.582 30.5 146.457 30.1809C146.363 29.8617 146.253 29.5248 146.128 29.1702C146.191 29.4539 146.206 29.7553 146.175 30.0745C146.175 30.3582 146.097 30.6418 145.94 30.9255C145.878 30.9965 145.784 31.0851 145.659 31.1915C145.534 31.2979 145.471 31.3865 145.471 31.4574C145.095 31.8121 144.767 32.1489 144.485 32.4681C144.516 33.1064 144.438 33.5496 144.25 33.7979C144.063 34.0461 143.859 34.2766 143.64 34.4894C143.108 34.5248 142.78 34.4894 142.654 34.383C142.529 34.2766 142.357 34.2057 142.138 34.1702C142.013 34.1348 141.888 34.1348 141.763 34.1702C141.637 34.1702 141.512 34.1702 141.387 34.1702C141.137 34.1702 140.902 34.0993 140.683 33.9574C140.589 33.8865 140.511 33.8156 140.448 33.7447C140.417 33.6738 140.37 33.6028 140.307 33.5319C140.057 33.2482 139.76 33.0177 139.416 32.8404C139.103 32.6277 138.79 32.4504 138.477 32.3085C138.226 32.0603 137.96 31.8121 137.679 31.5638C137.428 31.2801 137.162 31.0496 136.881 30.8723C136.63 31.5461 136.427 32.1489 136.27 32.6809C136.145 33.1773 135.989 33.6738 135.801 34.1702C135.457 35.3759 135.175 36.4397 134.956 37.3617C134.737 38.2482 134.487 39.1525 134.205 40.0745C134.08 40.1099 133.955 40.1631 133.83 40.234C133.736 40.305 133.61 40.3404 133.454 40.3404L133.125 40.1809ZM137.726 28.8511C137.976 28.3546 138.195 28.0887 138.383 28.0532C138.602 27.9823 138.79 27.8404 138.946 27.6277C139.009 27.5567 139.071 27.4681 139.134 27.3617C139.228 27.2553 139.322 27.1489 139.416 27.0426C139.509 26.9716 139.619 26.9007 139.744 26.8298C139.869 26.7589 139.979 26.6702 140.073 26.5638C140.323 26.3156 140.526 26.1028 140.683 25.9255C140.871 25.7482 141.137 25.6596 141.481 25.6596C142.013 25.6596 142.451 25.8191 142.795 26.1383C143.14 26.422 143.562 26.617 144.063 26.7234C144.125 26.9362 144.329 27.0957 144.673 27.2021C145.017 27.273 145.283 27.3794 145.471 27.5213C145.158 26.6347 144.908 25.7482 144.72 24.8617C144.563 23.9397 144.36 23.0355 144.11 22.1489C143.922 21.3688 143.703 20.6064 143.452 19.8617C143.202 19.0816 142.952 18.3369 142.701 17.6277C142.482 16.9184 142.295 16.227 142.138 15.5532C141.982 14.8794 141.778 14.2234 141.528 13.5851C141.278 14.2234 141.027 15.0035 140.777 15.9255C140.526 16.8475 140.339 17.6631 140.214 18.3723C140.214 18.6915 140.198 18.9397 140.167 19.117C140.104 19.3652 140.041 19.5957 139.979 19.8085C139.916 19.9858 139.854 20.1809 139.791 20.3936C139.384 21.7766 139.009 23.1773 138.664 24.5957C138.352 26.0142 137.976 27.4326 137.538 28.8511H137.726Z" fill="url(#paint5_linear_1_381)"/>
<defs>
<linearGradient id="paint0_linear_1_381" x1="10.1841" y1="-3.88382" x2="82.8525" y2="85.7585" gradientUnits="userSpaceOnUse">
<stop stop-color="#F8CA15"/>
<stop offset="0.520833" stop-color="#F72B22"/>
<stop offset="1" stop-color="#3C96D7"/>
</linearGradient>
<linearGradient id="paint1_linear_1_381" x1="10.1841" y1="-3.88382" x2="82.8525" y2="85.7585" gradientUnits="userSpaceOnUse">
<stop stop-color="#F8CA15"/>
<stop offset="0.520833" stop-color="#F72B22"/>
<stop offset="1" stop-color="#3C96D7"/>
</linearGradient>
<linearGradient id="paint2_linear_1_381" x1="10.1841" y1="-3.88382" x2="82.8525" y2="85.7585" gradientUnits="userSpaceOnUse">
<stop stop-color="#F8CA15"/>
<stop offset="0.520833" stop-color="#F72B22"/>
<stop offset="1" stop-color="#3C96D7"/>
</linearGradient>
<linearGradient id="paint3_linear_1_381" x1="10.1841" y1="-3.88382" x2="82.8525" y2="85.7585" gradientUnits="userSpaceOnUse">
<stop stop-color="#F8CA15"/>
<stop offset="0.520833" stop-color="#F72B22"/>
<stop offset="1" stop-color="#3C96D7"/>
</linearGradient>
<linearGradient id="paint4_linear_1_381" x1="10.1841" y1="-3.88382" x2="82.8525" y2="85.7585" gradientUnits="userSpaceOnUse">
<stop stop-color="#F8CA15"/>
<stop offset="0.520833" stop-color="#F72B22"/>
<stop offset="1" stop-color="#3C96D7"/>
</linearGradient>
<linearGradient id="paint5_linear_1_381" x1="10.1841" y1="-3.88382" x2="82.8525" y2="85.7585" gradientUnits="userSpaceOnUse">
<stop stop-color="#F8CA15"/>
<stop offset="0.520833" stop-color="#F72B22"/>
<stop offset="1" stop-color="#3C96D7"/>
</linearGradient>
</defs>
</svg>
